<svg width="64" height="64" viewBox="0 0 64 64" xmlns="http://www.w3.org/2000/svg">
  <!-- Background circle -->
  <circle cx="32" cy="32" r="30" fill="#2a2a2a" stroke="#c8aa6e" stroke-width="2"/>
  
  <!-- Armor vest/chest piece -->
  <path d="M 24 18 L 20 22 L 20 42 L 24 46 L 32 50 L 40 46 L 44 42 L 44 22 L 40 18 L 32 16 Z" 
        fill="#8b7355" stroke="#c8aa6e" stroke-width="1.5"/>
  
  <!-- Center vertical seam -->
  <line x1="32" y1="18" x2="32" y2="48" stroke="#6b5d4f" stroke-width="2"/>
  
  <!-- Shoulder straps -->
  <path d="M 24 18 L 28 14 L 32 16" fill="#6b5d4f" stroke="#c8aa6e" stroke-width="1"/>
  <path d="M 40 18 L 36 14 L 32 16" fill="#6b5d4f" stroke="#c8aa6e" stroke-width="1"/>
  
  <!-- Cross-stitching pattern -->
  <line x1="24" y1="24" x2="28" y2="28" stroke="#a0826d" stroke-width="1" opacity="0.7"/>
  <line x1="28" y1="24" x2="24" y2="28" stroke="#a0826d" stroke-width="1" opacity="0.7"/>
  
  <line x1="36" y1="24" x2="40" y2="28" stroke="#a0826d" stroke-width="1" opacity="0.7"/>
  <line x1="40" y1="24" x2="36" y2="28" stroke="#a0826d" stroke-width="1" opacity="0.7"/>
  
  <line x1="24" y1="34" x2="28" y2="38" stroke="#a0826d" stroke-width="1" opacity="0.7"/>
  <line x1="28" y1="34" x2="24" y2="38" stroke="#a0826d" stroke-width="1" opacity="0.7"/>
  
  <line x1="36" y1="34" x2="40" y2="38" stroke="#a0826d" stroke-width="1" opacity="0.7"/>
  <line x1="40" y1="34" x2="36" y2="38" stroke="#a0826d" stroke-width="1" opacity="0.7"/>
  
  <!-- Highlight on left side -->
  <path d="M 24 20 L 22 24 L 22 40 L 24 44" fill="none" stroke="#b8a080" stroke-width="1.5" opacity="0.5"/>
  
  <!-- Border glow effect -->
  <circle cx="32" cy="32" r="30" fill="none" stroke="#c8aa6e" stroke-width="2" opacity="0.3"/>
</svg>
